<svg version="1.1" xmlns="http://www.w3.org/2000/svg" viewBox="0 0 666.2421875 459.84375" width="1332.484375" height="919.6875">
  <!-- svg-source:excalidraw -->
  
  <defs>
    <style class="style-fonts">
      @font-face {
        font-family: "Virgil";
        src: url("https://excalidraw.com/Virgil.woff2");
      }
      @font-face {
        font-family: "Cascadia";
        src: url("https://excalidraw.com/Cascadia.woff2");
      }
      @font-face {
        font-family: "Assistant";
        src: url("https://excalidraw.com/Assistant-Regular.woff2");
      }
    </style>
    
  </defs>
  <g stroke-linecap="round" transform="translate(27.37890625 11.23046875) rotate(0 58.271484375 23.322265625)"><path d="M11.66 0 C38.4 -0.89, 67.68 -0.19, 104.88 0 M11.66 0 C42.26 0.21, 69.93 -0.39, 104.88 0 M104.88 0 C110.91 -1.03, 116.05 5.67, 116.54 11.66 M104.88 0 C114.75 -2.16, 114.82 5.24, 116.54 11.66 M116.54 11.66 C116.16 15.52, 118.49 20.79, 116.54 34.98 M116.54 11.66 C116.91 19.29, 116.95 26.22, 116.54 34.98 M116.54 34.98 C115.67 43.66, 113.8 47.12, 104.88 46.64 M116.54 34.98 C118.16 43.99, 112.72 46.24, 104.88 46.64 M104.88 46.64 C67.79 45.21, 35.25 46.92, 11.66 46.64 M104.88 46.64 C82.93 47.31, 58.86 47.28, 11.66 46.64 M11.66 46.64 C3.04 45.06, -0.53 43.71, 0 34.98 M11.66 46.64 C3.68 46.93, -0.63 43.69, 0 34.98 M0 34.98 C-0.71 29.59, -0.48 24.39, 0 11.66 M0 34.98 C0.68 27.89, -0.23 18.09, 0 11.66 M0 11.66 C-1.66 4.46, 2.91 1.35, 11.66 0 M0 11.66 C1.02 4.07, 2.23 0.86, 11.66 0" stroke="#1e1e1e" stroke-width="2" fill="none"></path></g><g transform="translate(60.390411376953125 22.052734375) rotate(0 25.259979248046875 12.5)"><text x="25.259979248046875" y="17.52" font-family="Virgil, Segoe UI Emoji" font-size="20px" fill="#1e1e1e" text-anchor="middle" style="white-space: pre;" direction="ltr" dominant-baseline="alphabetic">Hash1</text></g><g stroke-linecap="round" transform="translate(189.23046875 12.56640625) rotate(0 57.87109375 23.1875)"><path d="M11.59 0 C49.45 -1.41, 83.2 2.02, 104.15 0 M11.59 0 C39.32 -0.12, 66.11 -0.01, 104.15 0 M104.15 0 C111.11 1.83, 117.2 3.06, 115.74 11.59 M104.15 0 C113.79 -2.05, 116.88 3.81, 115.74 11.59 M115.74 11.59 C114.15 15.61, 114.07 23.85, 115.74 34.78 M115.74 11.59 C115.44 18.61, 115.17 24.59, 115.74 34.78 M115.74 34.78 C115.98 40.71, 113.86 45.22, 104.15 46.38 M115.74 34.78 C116.7 41.26, 113 46.13, 104.15 46.38 M104.15 46.38 C76.74 46.53, 48.48 46.08, 11.59 46.38 M104.15 46.38 C82.5 46.77, 61.03 47.15, 11.59 46.38 M11.59 46.38 C3.8 47.06, -1.73 41.51, 0 34.78 M11.59 46.38 C4.86 45.91, -1.54 43.07, 0 34.78 M0 34.78 C0.99 28.48, 1.52 24.11, 0 11.59 M0 34.78 C0.7 26.78, 0.12 19.69, 0 11.59 M0 11.59 C1.37 2.08, 3.56 -1.38, 11.59 0 M0 11.59 C-1.49 3.92, 3.68 1.57, 11.59 0" stroke="#1e1e1e" stroke-width="2" fill="none"></path></g><g transform="translate(217.43158721923828 23.25390625) rotate(0 29.66997528076172 12.5)"><text x="29.66997528076172" y="17.52" font-family="Virgil, Segoe UI Emoji" font-size="20px" fill="#1e1e1e" text-anchor="middle" style="white-space: pre;" direction="ltr" dominant-baseline="alphabetic">Hash2</text></g><g stroke-linecap="round"><g transform="translate(147.37109375 33.3203125) rotate(0 20.4296875 0)"><path d="M-0.06 -0.25 C6.8 -0.31, 33.97 -0.52, 40.78 -0.4 M-0.75 0.81 C6.05 0.82, 33.44 0.28, 40.31 0.1" stroke="#1e1e1e" stroke-width="2" fill="none"></path></g><g transform="translate(147.37109375 33.3203125) rotate(0 20.4296875 0)"><path d="M21.27 7.51 C25.37 5.61, 29.65 3.93, 40.31 0.1 M21.27 7.51 C28.76 4.57, 36.57 1.19, 40.31 0.1" stroke="#1e1e1e" stroke-width="2" fill="none"></path></g><g transform="translate(147.37109375 33.3203125) rotate(0 20.4296875 0)"><path d="M20.96 -6.46 C25.12 -5.03, 29.48 -3.36, 40.31 0.1 M20.96 -6.46 C28.57 -3.91, 36.5 -1.78, 40.31 0.1" stroke="#1e1e1e" stroke-width="2" fill="none"></path></g></g><mask></mask><g stroke-linecap="round" transform="translate(368.41796875 10.25390625) rotate(0 57.84765625 23.626953125)"><path d="M11.81 0 C37.13 -1.76, 63.26 -2.56, 103.88 0 M11.81 0 C39.64 -0.97, 69.4 -0.94, 103.88 0 M103.88 0 C111.13 0.49, 114.54 2.92, 115.7 11.81 M103.88 0 C109.48 1.9, 113.62 1.78, 115.7 11.81 M115.7 11.81 C116.61 21.31, 115.01 28.85, 115.7 35.44 M115.7 11.81 C114.98 19.51, 115.13 27.02, 115.7 35.44 M115.7 35.44 C117.44 45.24, 113.29 45.9, 103.88 47.25 M115.7 35.44 C115.18 41.19, 111.33 46.02, 103.88 47.25 M103.88 47.25 C69.68 44.74, 37.26 46.05, 11.81 47.25 M103.88 47.25 C75.96 46.38, 47.73 46.38, 11.81 47.25 M11.81 47.25 C3.54 46.85, -1.42 45.19, 0 35.44 M11.81 47.25 C4.88 47.46, 0.49 41.1, 0 35.44 M0 35.44 C0.7 31.13, 0.64 23.54, 0 11.81 M0 35.44 C-0.08 29.98, -0.77 23.36, 0 11.81 M0 11.81 C1.24 3.36, 4.05 1.15, 11.81 0 M0 11.81 C-1.1 5.65, 1.83 1.58, 11.81 0" stroke="#1e1e1e" stroke-width="2" fill="none"></path></g><g transform="translate(396.90564727783203 21.380859375) rotate(0 29.35997772216797 12.5)"><text x="29.35997772216797" y="17.52" font-family="Virgil, Segoe UI Emoji" font-size="20px" fill="#1e1e1e" text-anchor="middle" style="white-space: pre;" direction="ltr" dominant-baseline="alphabetic">Hash3</text></g><g stroke-linecap="round"><g transform="translate(308.078125 34.67578125) rotate(0 29.669921875 0)"><path d="M-1.17 0.28 C8.98 0.21, 50.28 -0.39, 60.33 -0.44 M0.42 -0.62 C10.55 -0.52, 50.26 0.56, 59.9 0.87" stroke="#1e1e1e" stroke-width="2" fill="none"></path></g><g transform="translate(308.078125 34.67578125) rotate(0 29.669921875 0)"><path d="M36.17 8.74 C42.62 8.64, 47.39 4.65, 59.9 0.87 M36.17 8.74 C42.79 6.24, 50.46 4.47, 59.9 0.87" stroke="#1e1e1e" stroke-width="2" fill="none"></path></g><g transform="translate(308.078125 34.67578125) rotate(0 29.669921875 0)"><path d="M36.67 -8.36 C42.98 -4.16, 47.63 -3.84, 59.9 0.87 M36.67 -8.36 C43.28 -5.8, 50.8 -2.51, 59.9 0.87" stroke="#1e1e1e" stroke-width="2" fill="none"></path></g></g><mask></mask><g stroke-linecap="round" transform="translate(190.9609375 85.9765625) rotate(0 140.759765625 52.96875)"><path d="M176.25 13.25 C200.41 21.73, 226.67 32.92, 246.27 39.75 M176.25 13.25 C189.49 18.66, 204.08 23.76, 246.27 39.75 M246.27 39.75 C279.83 52.35, 280.86 51.41, 246.27 66.25 M246.27 39.75 C283.12 52.21, 283.3 53.46, 246.27 66.25 M246.27 66.25 C222.91 76.49, 200.72 82.2, 176.25 92.69 M246.27 66.25 C231.18 71.01, 217.93 77.38, 176.25 92.69 M176.25 92.69 C141.3 105.13, 140.13 105.27, 105.75 92.69 M176.25 92.69 C141.11 104.58, 140.79 105.78, 105.75 92.69 M105.75 92.69 C76.68 81.58, 52.6 74.9, 35.25 66.25 M105.75 92.69 C89.4 87.13, 74.82 80.58, 35.25 66.25 M35.25 66.25 C1.72 54.43, 0.75 51.94, 35.25 39.75 M35.25 66.25 C0.63 54.09, 1.16 55.01, 35.25 39.75 M35.25 39.75 C56.16 30.62, 76.34 24.2, 105.75 13.25 M35.25 39.75 C56.5 31.31, 77.6 23.79, 105.75 13.25 M105.75 13.25 C139.71 1.64, 140.18 -1.63, 176.25 13.25 M105.75 13.25 C143.09 -1.02, 142.75 -1.73, 176.25 13.25" stroke="#1e1e1e" stroke-width="2" fill="none"></path></g><g transform="translate(270.28086853027344 126.4609375) rotate(0 61.55995178222656 12.5)"><text x="61.55995178222656" y="17.52" font-family="Virgil, Segoe UI Emoji" font-size="20px" fill="#1e1e1e" text-anchor="middle" style="white-space: pre;" direction="ltr" dominant-baseline="alphabetic">Transaction1</text></g><g stroke-linecap="round"><g transform="translate(332.797517684686 85.31331457356492) rotate(0 -0.6194619673429997 -24.465251036782462)"><path d="M-0.11 0.05 C-0.3 -8.19, -1.22 -40.78, -1.44 -48.95 M0.83 -0.4 C0.58 -8.31, -1.53 -40.26, -1.97 -48.26" stroke="#1e1e1e" stroke-width="2" fill="none"></path></g><g transform="translate(332.797517684686 85.31331457356492) rotate(0 -0.6194619673429997 -24.465251036782462)"><path d="M7.78 -25.81 C5.4 -31.64, 2.91 -37.02, -1.97 -48.26 M7.78 -25.81 C4.56 -32.38, 1.65 -39.15, -1.97 -48.26" stroke="#1e1e1e" stroke-width="2" fill="none"></path></g><g transform="translate(332.797517684686 85.31331457356492) rotate(0 -0.6194619673429997 -24.465251036782462)"><path d="M-8.93 -24.8 C-7.25 -30.85, -5.68 -36.48, -1.97 -48.26 M-8.93 -24.8 C-7.24 -31.71, -5.25 -38.77, -1.97 -48.26" stroke="#1e1e1e" stroke-width="2" fill="none"></path></g></g><mask></mask><g stroke-linecap="round" transform="translate(531.609375 10) rotate(0 57.87109375 23.1875)"><path d="M11.59 0 C45.07 2.07, 79.7 -0.38, 104.15 0 M11.59 0 C44.33 -1.57, 78.62 -0.15, 104.15 0 M104.15 0 C111.52 -1.33, 113.96 4.22, 115.74 11.59 M104.15 0 C113.21 -1.04, 114.7 5.41, 115.74 11.59 M115.74 11.59 C115.22 18.07, 115.83 26.97, 115.74 34.78 M115.74 11.59 C116.3 16.17, 116.25 22.07, 115.74 34.78 M115.74 34.78 C115.68 42.21, 111.35 47.35, 104.15 46.38 M115.74 34.78 C116.52 40.82, 111.82 46.84, 104.15 46.38 M104.15 46.38 C78.07 46.57, 53.54 47.79, 11.59 46.38 M104.15 46.38 C84.09 47.23, 64.8 46.73, 11.59 46.38 M11.59 46.38 C3.48 47.26, 0.26 43.47, 0 34.78 M11.59 46.38 C1.7 45.69, -1.01 40.32, 0 34.78 M0 34.78 C0.5 29.24, -0.47 24.11, 0 11.59 M0 34.78 C-0.24 25.99, 0.97 15.92, 0 11.59 M0 11.59 C-0.91 4.31, 3.9 -0.19, 11.59 0 M0 11.59 C1.46 5.31, 1.57 0.86, 11.59 0" stroke="#1e1e1e" stroke-width="2" fill="none"></path></g><g transform="translate(560.5304946899414 20.6875) rotate(0 28.949974060058594 12.5)"><text x="28.949974060058594" y="17.52" font-family="Virgil, Segoe UI Emoji" font-size="20px" fill="#1e1e1e" text-anchor="middle" style="white-space: pre;" direction="ltr" dominant-baseline="alphabetic">Hash4</text></g><g stroke-linecap="round"><g transform="translate(487.1249228592508 32.604938051902266) rotate(0 20.4296875 0)"><path d="M0 -0.43 C6.79 -0.28, 33.65 0.36, 40.48 0.46 M-0.67 0.54 C6.32 0.59, 34.63 -0.05, 41.52 -0.27" stroke="#1e1e1e" stroke-width="2" fill="none"></path></g><g transform="translate(487.1249228592508 32.604938051902266) rotate(0 20.4296875 0)"><path d="M22.51 7.21 C26.52 4.65, 32.92 3.62, 41.52 -0.27 M22.51 7.21 C28.39 4.54, 35.63 1.84, 41.52 -0.27" stroke="#1e1e1e" stroke-width="2" fill="none"></path></g><g transform="translate(487.1249228592508 32.604938051902266) rotate(0 20.4296875 0)"><path d="M22.15 -6.76 C26.19 -5.82, 32.68 -3.34, 41.52 -0.27 M22.15 -6.76 C28.11 -4.78, 35.47 -2.81, 41.52 -0.27" stroke="#1e1e1e" stroke-width="2" fill="none"></path></g></g><mask></mask><g stroke-linecap="round" transform="translate(10 329.84375) rotate(0 63.962890625 60)"><path d="M79.6 2.68 C88.67 4.33, 98.7 10.48, 106.29 16.51 C113.88 22.54, 121.46 30.17, 125.11 38.86 C128.76 47.56, 129.84 59.27, 128.2 68.7 C126.55 78.12, 121.14 87.99, 115.24 95.42 C109.33 102.86, 101.52 109.26, 92.77 113.31 C84.02 117.36, 72.8 119.78, 62.73 119.74 C52.65 119.7, 40.84 117.39, 32.31 113.07 C23.79 108.76, 16.8 101.82, 11.58 93.85 C6.36 85.89, 2.03 74.74, 0.99 65.29 C-0.04 55.84, 1.79 45.49, 5.38 37.13 C8.96 28.76, 14.99 20.9, 22.49 15.09 C29.99 9.28, 39.71 3.96, 50.38 2.27 C61.05 0.58, 79.35 3.95, 86.51 4.96 C93.67 5.96, 93.61 7.6, 93.33 8.31 M64.47 -0.3 C73.81 -0.96, 84.55 4.28, 93.37 8.75 C102.19 13.22, 111.68 19.04, 117.4 26.53 C123.11 34.01, 126.95 44.57, 127.68 53.64 C128.42 62.71, 125.48 72.44, 121.79 80.93 C118.1 89.43, 112.65 98.53, 105.54 104.61 C98.42 110.69, 88.95 115.26, 79.09 117.4 C69.23 119.54, 56.07 119.57, 46.36 117.46 C36.66 115.36, 27.85 111.06, 20.85 104.78 C13.85 98.49, 7.52 88.85, 4.37 79.77 C1.21 70.68, 0.46 59.24, 1.93 50.28 C3.4 41.32, 7.42 33.27, 13.21 26 C18.99 18.73, 27.95 10.94, 36.65 6.66 C45.35 2.38, 60.48 1.45, 65.42 0.31 C70.37 -0.84, 66.15 -1.23, 66.33 -0.22" stroke="#1e1e1e" stroke-width="2" fill="none"></path></g><g transform="translate(41.59432041830422 364.91734312880715) rotate(0 32.139976501464844 25)"><text x="32.139976501464844" y="17.52" font-family="Virgil, Segoe UI Emoji" font-size="20px" fill="#1e1e1e" text-anchor="middle" style="white-space: pre;" direction="ltr" dominant-baseline="alphabetic">Hash10</text><text x="32.139976501464844" y="42.519999999999996" font-family="Virgil, Segoe UI Emoji" font-size="20px" fill="#1e1e1e" text-anchor="middle" style="white-space: pre;" direction="ltr" dominant-baseline="alphabetic">(Tick1)</text></g><g stroke-linecap="round"><g transform="translate(196.30406411818376 390.8256112944305) rotate(0 -26.918848183016507 -0.2735645573824854)"><path d="M0.33 -0.07 C-8.52 0.13, -43.94 0.68, -53.13 0.58 M-0.95 -1.16 C-9.89 -1.2, -45.13 -1.24, -53.7 -0.94" stroke="#1e1e1e" stroke-width="2" fill="none"></path></g><g transform="translate(196.30406411818376 390.8256112944305) rotate(0 -26.918848183016507 -0.2735645573824854)"><path d="M-30.33 -9.81 C-37.46 -5.92, -42.42 -6.03, -53.7 -0.94 M-30.33 -9.81 C-36.71 -6.46, -43.94 -4.13, -53.7 -0.94" stroke="#1e1e1e" stroke-width="2" fill="none"></path></g><g transform="translate(196.30406411818376 390.8256112944305) rotate(0 -26.918848183016507 -0.2735645573824854)"><path d="M-30.1 7.29 C-37.21 6.08, -42.23 0.88, -53.7 -0.94 M-30.1 7.29 C-36.58 5.68, -43.88 3.05, -53.7 -0.94" stroke="#1e1e1e" stroke-width="2" fill="none"></path></g></g><mask></mask><g stroke-linecap="round" transform="translate(531.12890625 103.03125) rotate(0 57.87109375 23.1875)"><path d="M11.59 0 C39.33 -0.27, 64 0, 104.15 0 M11.59 0 C29.95 -1.53, 50.46 -1.74, 104.15 0 M104.15 0 C112.27 -1.44, 114.73 3.49, 115.74 11.59 M104.15 0 C112.52 -2.05, 116.06 5.98, 115.74 11.59 M115.74 11.59 C117.41 15.28, 115.02 20.05, 115.74 34.78 M115.74 11.59 C115.94 19.11, 114.9 28.06, 115.74 34.78 M115.74 34.78 C117.27 43.83, 113.21 47.29, 104.15 46.38 M115.74 34.78 C114.14 44.74, 112.5 45.53, 104.15 46.38 M104.15 46.38 C84.19 47.2, 59.39 44.35, 11.59 46.38 M104.15 46.38 C80.64 46.3, 55.99 45.67, 11.59 46.38 M11.59 46.38 C4.9 45.85, -1.07 43.21, 0 34.78 M11.59 46.38 C3.6 47.96, -1.68 42.5, 0 34.78 M0 34.78 C-0.29 25.87, -0.3 18.64, 0 11.59 M0 34.78 C-0.11 27.99, -0.27 21, 0 11.59 M0 11.59 C0.57 4.73, 4.6 -0.13, 11.59 0 M0 11.59 C1.84 5.27, 5.78 -0.86, 11.59 0" stroke="#1e1e1e" stroke-width="2" fill="none"></path></g><g transform="translate(560.2700271606445 113.71875) rotate(0 28.72997283935547 12.5)"><text x="28.72997283935547" y="17.52" font-family="Virgil, Segoe UI Emoji" font-size="20px" fill="#1e1e1e" text-anchor="middle" style="white-space: pre;" direction="ltr" dominant-baseline="alphabetic">Hash5</text></g><g stroke-linecap="round"><g transform="translate(590.97265625 57.7578125) rotate(0 -0.4453125 21.060546875)"><path d="M-0.05 -0.48 C-0.2 6.63, -0.86 35.1, -0.98 42.24 M-0.74 0.46 C-0.96 7.43, -1.4 34.51, -1.46 41.34" stroke="#1e1e1e" stroke-width="2" fill="none"></path></g><g transform="translate(590.97265625 57.7578125) rotate(0 -0.4453125 21.060546875)"><path d="M-8.4 21.45 C-7.36 27.02, -4.26 33.12, -1.46 41.34 M-8.4 21.45 C-6.27 28.87, -3.3 34.89, -1.46 41.34" stroke="#1e1e1e" stroke-width="2" fill="none"></path></g><g transform="translate(590.97265625 57.7578125) rotate(0 -0.4453125 21.060546875)"><path d="M6 21.64 C2.91 27.14, 1.85 33.19, -1.46 41.34 M6 21.64 C3.12 28.98, 1.08 34.93, -1.46 41.34" stroke="#1e1e1e" stroke-width="2" fill="none"></path></g></g><mask></mask><g stroke-linecap="round" transform="translate(535.76953125 189.51171875) rotate(0 57.87109375 23.1875)"><path d="M11.59 0 C30.14 -0.58, 51.18 -1.16, 104.15 0 M11.59 0 C44.55 -0.68, 79.5 -1.42, 104.15 0 M104.15 0 C110.28 -1.45, 113.91 5.67, 115.74 11.59 M104.15 0 C110 -1.56, 117.35 4.84, 115.74 11.59 M115.74 11.59 C114.84 19.14, 115.73 23.66, 115.74 34.78 M115.74 11.59 C114.99 19.94, 115.06 26.47, 115.74 34.78 M115.74 34.78 C117.62 43.29, 112.84 48, 104.15 46.38 M115.74 34.78 C117.34 42.56, 112.52 46.6, 104.15 46.38 M104.15 46.38 C71.38 45.84, 35.58 46.75, 11.59 46.38 M104.15 46.38 C74.03 44.82, 45.02 46.54, 11.59 46.38 M11.59 46.38 C2.17 44.58, 1.06 42.28, 0 34.78 M11.59 46.38 C1.61 46.42, 1.65 42.23, 0 34.78 M0 34.78 C-1.58 26.85, -0.23 20.46, 0 11.59 M0 34.78 C-0.26 25.69, 0.69 16.15, 0 11.59 M0 11.59 C-1.51 3.91, 3.43 -0.49, 11.59 0 M0 11.59 C1.17 2.32, 5.68 -1.03, 11.59 0" stroke="#1e1e1e" stroke-width="2" fill="none"></path></g><g transform="translate(564.6906509399414 200.19921875) rotate(0 28.949974060058594 12.5)"><text x="28.949974060058594" y="17.52" font-family="Virgil, Segoe UI Emoji" font-size="20px" fill="#1e1e1e" text-anchor="middle" style="white-space: pre;" direction="ltr" dominant-baseline="alphabetic">Hash6</text></g><g stroke-linecap="round"><g transform="translate(591.2912608431197 147.11546928938478) rotate(0 -0.4453125 21.060546875000014)"><path d="M-0.01 0.08 C-0.03 7.14, -0.42 35.38, -0.62 42.39 M-0.68 -0.35 C-0.7 6.54, -1.02 34.37, -0.92 41.56" stroke="#1e1e1e" stroke-width="2" fill="none"></path></g><g transform="translate(591.2912608431197 147.11546928938478) rotate(0 -0.4453125 21.060546875000014)"><path d="M-8.12 21.76 C-6.52 26.22, -4.74 29.11, -0.92 41.56 M-8.12 21.76 C-6 28.22, -3.61 34.11, -0.92 41.56" stroke="#1e1e1e" stroke-width="2" fill="none"></path></g><g transform="translate(591.2912608431197 147.11546928938478) rotate(0 -0.4453125 21.060546875000014)"><path d="M6.29 21.77 C5 26.22, 3.89 29.11, -0.92 41.56 M6.29 21.77 C4.02 28.17, 2.01 34.06, -0.92 41.56" stroke="#1e1e1e" stroke-width="2" fill="none"></path></g></g><mask></mask><g stroke-linecap="round" transform="translate(224.31640625 211.408203125) rotate(0 141.796875 60)"><path d="M177.5 15.25 C202.11 26.7, 226.94 37.17, 248.09 45.75 M177.5 15.25 C199.34 24.4, 221.68 32.96, 248.09 45.75 M248.09 45.75 C282.43 60.56, 282.91 61.68, 248.09 76.25 M248.09 45.75 C281.77 60.57, 285.29 58.76, 248.09 76.25 M248.09 76.25 C225.76 84.98, 204.02 95.27, 177.5 104.75 M248.09 76.25 C230.78 83.74, 212.9 89.04, 177.5 104.75 M177.5 104.75 C142.2 118.65, 141.34 118.6, 106.5 104.75 M177.5 104.75 C141.56 120.02, 139.97 119.24, 106.5 104.75 M106.5 104.75 C84.16 95.04, 66.1 86.68, 35.5 76.25 M106.5 104.75 C81.8 95.24, 55.2 85.71, 35.5 76.25 M35.5 76.25 C0.48 60.56, 1.59 60.24, 35.5 45.75 M35.5 76.25 C2.27 62.5, -1.22 61.8, 35.5 45.75 M35.5 45.75 C63.45 34.96, 91.34 22.08, 106.5 15.25 M35.5 45.75 C61.3 35.44, 87.85 24.82, 106.5 15.25 M106.5 15.25 C142.26 0.25, 142.19 0.67, 177.5 15.25 M106.5 15.25 C141.89 -1.29, 143.21 0.13, 177.5 15.25" stroke="#1e1e1e" stroke-width="2" fill="none"></path></g><g transform="translate(300.2448959350586 258.908203125) rotate(0 65.9699478149414 12.5)"><text x="65.9699478149414" y="17.52" font-family="Virgil, Segoe UI Emoji" font-size="20px" fill="#1e1e1e" text-anchor="middle" style="white-space: pre;" direction="ltr" dominant-baseline="alphabetic">Transaction2</text></g><g stroke-linecap="round" transform="translate(539.36328125 280.46875) rotate(0 57.87109375 23.1875)"><path d="M11.59 0 C39.09 0.81, 66.76 1.17, 104.15 0 M11.59 0 C32.03 0.81, 50.18 -0.82, 104.15 0 M104.15 0 C110.06 -0.48, 115.46 3.14, 115.74 11.59 M104.15 0 C112.83 -1.99, 116.31 1.95, 115.74 11.59 M115.74 11.59 C115.52 20.65, 113.99 26.64, 115.74 34.78 M115.74 11.59 C115.58 18.58, 114.91 25.92, 115.74 34.78 M115.74 34.78 C115.48 43.98, 111.67 47.11, 104.15 46.38 M115.74 34.78 C115.93 42.8, 110.86 48.62, 104.15 46.38 M104.15 46.38 C69.88 46.96, 41.07 46.55, 11.59 46.38 M104.15 46.38 C84.79 46.36, 65.23 45.76, 11.59 46.38 M11.59 46.38 C3.01 48.32, -1.68 43.7, 0 34.78 M11.59 46.38 C5.39 46.45, 1.68 43.49, 0 34.78 M0 34.78 C-0.32 26.07, -0.87 19.72, 0 11.59 M0 34.78 C0.57 28.77, 0.29 20.3, 0 11.59 M0 11.59 C1.61 5.45, 4.97 1.07, 11.59 0 M0 11.59 C-0.03 4.65, 1.86 -0.79, 11.59 0" stroke="#1e1e1e" stroke-width="2" fill="none"></path></g><g transform="translate(569.3043975830078 291.15625) rotate(0 27.929977416992188 12.5)"><text x="27.929977416992188" y="17.52" font-family="Virgil, Segoe UI Emoji" font-size="20px" fill="#1e1e1e" text-anchor="middle" style="white-space: pre;" direction="ltr" dominant-baseline="alphabetic">Hash7</text></g><g stroke-linecap="round" transform="translate(540.5 362.44140625) rotate(0 57.87109375 23.1875)"><path d="M11.59 0 C40.86 1.55, 69.71 1.32, 104.15 0 M11.59 0 C47.22 -1.36, 84.26 -1.05, 104.15 0 M104.15 0 C112.29 -1.16, 117.35 4.54, 115.74 11.59 M104.15 0 C113.27 1.36, 113.93 3.76, 115.74 11.59 M115.74 11.59 C115.99 17.02, 115.66 25.9, 115.74 34.78 M115.74 11.59 C115.37 21.27, 116.47 29.64, 115.74 34.78 M115.74 34.78 C117.47 41.82, 111.87 45.14, 104.15 46.38 M115.74 34.78 C114.76 44.63, 111.56 47.94, 104.15 46.38 M104.15 46.38 C84.31 44.86, 64.59 46.54, 11.59 46.38 M104.15 46.38 C77.87 46.72, 52.61 46.79, 11.59 46.38 M11.59 46.38 C5.23 46.62, 2 40.52, 0 34.78 M11.59 46.38 C1.68 47.63, -0.2 41.76, 0 34.78 M0 34.78 C-1.12 23.76, -0.31 17.23, 0 11.59 M0 34.78 C-0.94 26.43, 0.82 16.98, 0 11.59 M0 11.59 C1.24 5.41, 4.44 0.89, 11.59 0 M0 11.59 C0.96 5.31, 1.59 1.46, 11.59 0" stroke="#1e1e1e" stroke-width="2" fill="none"></path></g><g transform="translate(568.1711196899414 373.12890625) rotate(0 30.199974060058594 12.5)"><text x="30.199974060058594" y="17.52" font-family="Virgil, Segoe UI Emoji" font-size="20px" fill="#1e1e1e" text-anchor="middle" style="white-space: pre;" direction="ltr" dominant-baseline="alphabetic">Hash8</text></g><g stroke-linecap="round" transform="translate(199.8515625 366.7421875) rotate(0 57.87109375 23.1875)"><path d="M11.59 0 C37.78 0.36, 60.5 -1.45, 104.15 0 M11.59 0 C40.62 -0.19, 72.3 -0.59, 104.15 0 M104.15 0 C113.56 1.03, 117.39 3.46, 115.74 11.59 M104.15 0 C112.75 -0.14, 115.85 4.11, 115.74 11.59 M115.74 11.59 C117.37 17.4, 116.72 25.58, 115.74 34.78 M115.74 11.59 C115.79 20.43, 115.75 29.49, 115.74 34.78 M115.74 34.78 C116.55 43.05, 113.83 45.18, 104.15 46.38 M115.74 34.78 C115 42.86, 113.75 45.48, 104.15 46.38 M104.15 46.38 C76.24 46.68, 48.09 45.28, 11.59 46.38 M104.15 46.38 C76.45 47.76, 48.25 47.48, 11.59 46.38 M11.59 46.38 C4.37 45.69, 1.21 44.09, 0 34.78 M11.59 46.38 C4.81 46.63, -0.9 44.26, 0 34.78 M0 34.78 C-0.15 29.27, -1.27 24.3, 0 11.59 M0 34.78 C-0.42 27.41, 0.16 20.06, 0 11.59 M0 11.59 C0.89 4.81, 2.29 1.06, 11.59 0 M0 11.59 C0.27 5.07, 5.3 -0.5, 11.59 0" stroke="#1e1e1e" stroke-width="2" fill="none"></path></g><g transform="translate(229.08267974853516 377.4296875) rotate(0 28.639976501464844 12.5)"><text x="28.639976501464844" y="17.52" font-family="Virgil, Segoe UI Emoji" font-size="20px" fill="#1e1e1e" text-anchor="middle" style="white-space: pre;" direction="ltr" dominant-baseline="alphabetic">Hash9</text></g><g stroke-linecap="round"><g transform="translate(539.5000000000001 390.3967357364663) rotate(0 -110.26562500000006 -0.6068852003123766)"><path d="M0.39 -0.58 C-35.98 -0.8, -182.71 -1.65, -219.36 -1.69 M-0.86 1.73 C-37.2 1.7, -183.21 0.37, -219.69 -0.41" stroke="#1e1e1e" stroke-width="2" fill="none"></path></g><g transform="translate(539.5000000000001 390.3967357364663) rotate(0 -110.26562500000006 -0.6068852003123766)"><path d="M-196.08 -8.62 C-201.99 -4.88, -206.73 -3.41, -219.69 -0.41 M-196.08 -8.62 C-203.47 -5.99, -212.57 -3.85, -219.69 -0.41" stroke="#1e1e1e" stroke-width="2" fill="none"></path></g><g transform="translate(539.5000000000001 390.3967357364663) rotate(0 -110.26562500000006 -0.6068852003123766)"><path d="M-196.32 8.48 C-202.12 8.66, -206.82 6.57, -219.69 -0.41 M-196.32 8.48 C-203.73 5.41, -212.75 1.86, -219.69 -0.41" stroke="#1e1e1e" stroke-width="2" fill="none"></path></g></g><mask></mask><g stroke-linecap="round"><g transform="translate(366.78125 328.90625) rotate(0 -0.99609375 29.333984375)"><path d="M-0.03 0.81 C-0.04 10.61, -0.9 48.01, -1.07 57.82 M-1.5 0.19 C-1.51 10.2, -1.57 49.3, -1.54 58.92" stroke="#1e1e1e" stroke-width="2" fill="none"></path></g><g transform="translate(366.78125 328.90625) rotate(0 -0.99609375 29.333984375)"><path d="M-10.1 35.43 C-7.07 42.08, -7.96 47.21, -1.54 58.92 M-10.1 35.43 C-5.95 44.22, -3.68 53.22, -1.54 58.92" stroke="#1e1e1e" stroke-width="2" fill="none"></path></g><g transform="translate(366.78125 328.90625) rotate(0 -0.99609375 29.333984375)"><path d="M7 35.42 C6.31 42.07, 1.68 47.21, -1.54 58.92 M7 35.42 C4.54 44.24, 0.19 53.24, -1.54 58.92" stroke="#1e1e1e" stroke-width="2" fill="none"></path></g></g><mask></mask><g stroke-linecap="round"><g transform="translate(591.78515625 234.9140625) rotate(0 0 21.21875)"><path d="M0.42 -0.1 C0.42 7.11, -0.07 35.69, -0.13 42.8 M-0.03 -0.63 C-0.1 6.46, -0.59 34.72, -0.62 42.02" stroke="#1e1e1e" stroke-width="2" fill="none"></path></g><g transform="translate(591.78515625 234.9140625) rotate(0 0 21.21875)"><path d="M-7.64 22 C-5.96 27.27, -3.18 33.17, -0.62 42.02 M-7.64 22 C-4.82 28.51, -3.37 34.69, -0.62 42.02" stroke="#1e1e1e" stroke-width="2" fill="none"></path></g><g transform="translate(591.78515625 234.9140625) rotate(0 0 21.21875)"><path d="M6.87 22.17 C4.54 27.45, 3.31 33.3, -0.62 42.02 M6.87 22.17 C5.01 28.66, 1.79 34.79, -0.62 42.02" stroke="#1e1e1e" stroke-width="2" fill="none"></path></g></g><mask></mask><g stroke-linecap="round"><g transform="translate(594.90625 328.5703125) rotate(0 0.435546875 16.310546875)"><path d="M0.42 0.08 C0.45 5.57, 0.17 27.54, 0.33 32.89 M-0.02 -0.35 C0.14 4.98, 1.06 26.58, 1.29 32.06" stroke="#1e1e1e" stroke-width="2" fill="none"></path></g><g transform="translate(594.90625 328.5703125) rotate(0 0.435546875 16.310546875)"><path d="M-4.93 16.97 C-2.73 21.19, -0.38 27.83, 1.29 32.06 M-4.93 16.97 C-3.81 19.9, -2.05 23.37, 1.29 32.06" stroke="#1e1e1e" stroke-width="2" fill="none"></path></g><g transform="translate(594.90625 328.5703125) rotate(0 0.435546875 16.310546875)"><path d="M6.22 16.5 C4.69 20.93, 3.31 27.72, 1.29 32.06 M6.22 16.5 C4.98 19.54, 4.38 23.11, 1.29 32.06" stroke="#1e1e1e" stroke-width="2" fill="none"></path></g></g><mask></mask><g stroke-linecap="round" transform="translate(15.2734375 249.71875) rotate(0 57.87109375 23.1875)"><path d="M11.59 0 C33.17 1.01, 53.48 1.21, 104.15 0 M11.59 0 C46.04 -0.14, 81.57 -0.4, 104.15 0 M104.15 0 C111.58 1.01, 116.77 5.28, 115.74 11.59 M104.15 0 C113.48 0.4, 113.94 2.79, 115.74 11.59 M115.74 11.59 C117.79 16.61, 114.67 24.03, 115.74 34.78 M115.74 11.59 C115.99 18.59, 115.49 27.14, 115.74 34.78 M115.74 34.78 C117.64 40.67, 110.31 44.76, 104.15 46.38 M115.74 34.78 C115.31 42.87, 111.55 45.47, 104.15 46.38 M104.15 46.38 C81.54 46.92, 61.93 45.96, 11.59 46.38 M104.15 46.38 C77.64 45.79, 52.6 45.91, 11.59 46.38 M11.59 46.38 C3.19 44.52, 1.74 43.12, 0 34.78 M11.59 46.38 C1.91 47.48, 0.13 42.79, 0 34.78 M0 34.78 C1.15 27.23, -0.18 21.24, 0 11.59 M0 34.78 C0.32 29.77, -0.48 22.63, 0 11.59 M0 11.59 C-0.64 5.64, 2.49 -1.76, 11.59 0 M0 11.59 C0.17 2.76, 3.99 -1.48, 11.59 0" stroke="#1e1e1e" stroke-width="2" fill="none"></path></g><g transform="translate(45.17455291748047 260.40625) rotate(0 27.96997833251953 12.5)"><text x="27.96997833251953" y="17.52" font-family="Virgil, Segoe UI Emoji" font-size="20px" fill="#1e1e1e" text-anchor="middle" style="white-space: pre;" direction="ltr" dominant-baseline="alphabetic">Hash11</text></g><g stroke-linecap="round" transform="translate(16.86328125 165.94921875) rotate(0 57.87109375 23.1875)"><path d="M11.59 0 C29.71 0.48, 50.35 1.81, 104.15 0 M11.59 0 C45.11 -0.63, 79.49 0.76, 104.15 0 M104.15 0 C111.3 1.84, 115.42 2.58, 115.74 11.59 M104.15 0 C113.89 0.57, 117.82 5.32, 115.74 11.59 M115.74 11.59 C116.58 20.53, 113.78 24.1, 115.74 34.78 M115.74 11.59 C115.56 16.28, 114.96 22.08, 115.74 34.78 M115.74 34.78 C115.37 40.8, 112.6 45.96, 104.15 46.38 M115.74 34.78 C115.46 42.02, 113.32 44.77, 104.15 46.38 M104.15 46.38 C83.49 45.7, 60.26 48.12, 11.59 46.38 M104.15 46.38 C73.63 46.94, 43.28 47.34, 11.59 46.38 M11.59 46.38 C5.49 47.65, 0.06 42.45, 0 34.78 M11.59 46.38 C5.8 45.05, -0.44 42.93, 0 34.78 M0 34.78 C-1.99 26.55, 1.64 18.23, 0 11.59 M0 34.78 C0.04 29.22, 0.88 25.26, 0 11.59 M0 11.59 C1.73 2.64, 3.92 -0.64, 11.59 0 M0 11.59 C-1.5 2.41, 3.41 1.23, 11.59 0" stroke="#1e1e1e" stroke-width="2" fill="none"></path></g><g transform="translate(42.354400634765625 176.63671875) rotate(0 32.379974365234375 12.5)"><text x="32.379974365234375" y="17.52" font-family="Virgil, Segoe UI Emoji" font-size="20px" fill="#1e1e1e" text-anchor="middle" style="white-space: pre;" direction="ltr" dominant-baseline="alphabetic">Hash12</text></g><g stroke-linecap="round"><g transform="translate(72.50254584483912 328.8591646915434) rotate(0 -0.41580305045206956 -15.882707345771678)"><path d="M-0.52 -0.22 C-0.69 -5.55, -1.38 -26.46, -1.34 -31.72 M0.21 -0.81 C0.23 -6.06, -0.27 -25.94, -0.37 -31" stroke="#1e1e1e" stroke-width="2" fill="none"></path></g><g transform="translate(72.50254584483912 328.8591646915434) rotate(0 -0.41580305045206956 -15.882707345771678)"><path d="M5.39 -16.19 C3.65 -20.53, 2.64 -22.59, -0.37 -31 M5.39 -16.19 C3.38 -21.04, 2.08 -25.16, -0.37 -31" stroke="#1e1e1e" stroke-width="2" fill="none"></path></g><g transform="translate(72.50254584483912 328.8591646915434) rotate(0 -0.41580305045206956 -15.882707345771678)"><path d="M-5.47 -15.95 C-4.59 -20.3, -2.98 -22.42, -0.37 -31 M-5.47 -15.95 C-4.2 -20.91, -2.22 -25.09, -0.37 -31" stroke="#1e1e1e" stroke-width="2" fill="none"></path></g></g><mask></mask><g stroke-linecap="round"><g transform="translate(72.2059942780603 248.71875) rotate(0 0.042555288609207764 -17.697265625)"><path d="M0.51 0.26 C0.49 -5.79, -0.19 -29.89, -0.35 -35.81 M0.1 -0.08 C0.28 -5.84, 0.57 -29.3, 0.66 -35.32" stroke="#1e1e1e" stroke-width="2" fill="none"></path></g><g transform="translate(72.2059942780603 248.71875) rotate(0 0.042555288609207764 -17.697265625)"><path d="M6.48 -18.61 C5.35 -23.51, 2.79 -27.86, 0.66 -35.32 M6.48 -18.61 C4.27 -24.01, 2.4 -29.41, 0.66 -35.32" stroke="#1e1e1e" stroke-width="2" fill="none"></path></g><g transform="translate(72.2059942780603 248.71875) rotate(0 0.042555288609207764 -17.697265625)"><path d="M-5.62 -18.77 C-3.68 -23.7, -3.18 -28, 0.66 -35.32 M-5.62 -18.77 C-3.8 -24.12, -1.63 -29.47, 0.66 -35.32" stroke="#1e1e1e" stroke-width="2" fill="none"></path></g></g><mask></mask><g stroke-linecap="round"><g transform="translate(75.3515625 163.21875) rotate(0 -0.369140625 -15.625)"><path d="M0.21 -0.04 C0.07 -5.16, -1.1 -25.78, -1.18 -30.92 M-0.34 -0.54 C-0.29 -5.79, -0.17 -26.51, -0.17 -31.71" stroke="#1e1e1e" stroke-width="2" fill="none"></path></g><g transform="translate(75.3515625 163.21875) rotate(0 -0.369140625 -15.625)"><path d="M5.13 -17.01 C3.83 -21.14, 3.1 -23.37, -0.17 -31.71 M5.13 -17.01 C3.13 -22.47, 1.23 -27.74, -0.17 -31.71" stroke="#1e1e1e" stroke-width="2" fill="none"></path></g><g transform="translate(75.3515625 163.21875) rotate(0 -0.369140625 -15.625)"><path d="M-5.56 -17.04 C-4.3 -21.19, -2.48 -23.41, -0.17 -31.71 M-5.56 -17.04 C-3.58 -22.45, -1.5 -27.71, -0.17 -31.71" stroke="#1e1e1e" stroke-width="2" fill="none"></path></g></g><mask></mask><g transform="translate(64.91015625 99.953125) rotate(0 8.219993591308594 12.5)"><text x="0" y="17.52" font-family="Virgil, Segoe UI Emoji" font-size="20px" fill="#1e1e1e" text-anchor="start" style="white-space: pre;" direction="ltr" dominant-baseline="alphabetic">...</text></g></svg>